
        <svg xmlns="http://www.w3.org/2000/svg" xmlns:xlink="http://www.w3.org/1999/xlink" version="1.1" width="3147.783251231527" 
        height="1758.6206896551726" viewBox="0 -103.44827586206897 3147.783251231527 1758.6206896551726">
			
			<g transform="scale(7.389162561576355) translate(10, 10)">
				<defs id="SvgjsDefs2509"></defs><g id="SvgjsG2510" featureKey="symbolFeature-0" transform="matrix(0.221864770416207,0,0,0.221864770416207,-7.700427005725436,26.92306879033393)" fill="#111111"><path xmlns="http://www.w3.org/2000/svg" stroke="#111111" stroke-miterlimit="10" d="M39.215,40.912v450.725H489.94V40.912H39.215z M249.578,470.651H72.896V61.897  h176.682V470.651z M451.578,470.651H274.896V61.897h176.682V470.651z"></path><rect xmlns="http://www.w3.org/2000/svg" x="269.245" y="266.274" fill="#111111" stroke="#111111" stroke-miterlimit="10" width="54.651" height="14.285"></rect><rect xmlns="http://www.w3.org/2000/svg" x="199.911" y="266.274" fill="#111111" stroke="#111111" stroke-miterlimit="10" width="54.651" height="14.285"></rect></g><g id="SvgjsG2511" featureKey="textGroupContainer" transform="matrix(1,0,0,1,405,-14)" fill="#d90000"><rect xmlns="http://www.w3.org/2000/svg" y="0" height="1" width="1" opacity="0"></rect><rect xmlns="http://www.w3.org/2000/svg" y="0" x="-285" width="3" height="204"></rect></g><g id="SvgjsG2512" featureKey="vMvB0T-0" transform="matrix(4.565376326932661,0,0,4.565376326932661,128.77794208361473,26.986119475402486)" fill="#111111"><path d="M2.02 20 l0 -14.58 l1.54 0 l0 13.14 l6.92 0 l0 1.44 l-8.46 0 z M12.52 19.78 c-0.26 -0.28 -0.4 -0.58 -0.4 -0.96 c0 -0.36 0.14 -0.68 0.4 -0.94 s0.56 -0.38 0.94 -0.38 s0.68 0.12 0.94 0.38 s0.4 0.58 0.4 0.94 c0 0.38 -0.14 0.68 -0.4 0.96 c-0.26 0.26 -0.56 0.38 -0.94 0.38 s-0.68 -0.12 -0.94 -0.38 z M30.839999999999996 9.6 l-1.46 0.52 c-0.18 -0.52 -0.42 -1.06 -1 -1.72 c-0.28 -0.3 -0.6 -0.6 -0.96 -0.84 c-0.72 -0.5 -1.84 -0.86 -3.06 -0.86 c-1.1 0 -2.08 0.26 -2.96 0.82 s-1.56 1.28 -2.04 2.2 c-0.48 0.9 -0.72 1.88 -0.72 2.96 c0 1.64 0.56 3.16 1.52 4.26 c0.98 1.1 2.5 1.78 4.22 1.78 c1.3 0 2.54 -0.42 3.48 -1.14 s1.58 -1.88 1.66 -3.22 l-6.08 0 l0 -1.42 l7.72 0 l0 0.56 c0 1.84 -0.66 3.5 -1.8 4.7 c-1.16 1.2 -2.94 1.94 -5 1.94 c-2.18 0 -4.08 -0.8 -5.32 -2.12 s-1.98 -3.2 -1.98 -5.26 c0 -1.38 0.32 -2.66 0.96 -3.8 s1.52 -2.04 2.64 -2.7 s2.38 -0.98 3.74 -0.98 c1.72 0 3.24 0.48 4.28 1.32 c1.06 0.82 1.76 1.82 2.16 3 z M33.67999999999999 19.78 c-0.26 -0.28 -0.4 -0.58 -0.4 -0.96 c0 -0.36 0.14 -0.68 0.4 -0.94 s0.56 -0.38 0.94 -0.38 s0.68 0.12 0.94 0.38 s0.4 0.58 0.4 0.94 c0 0.38 -0.14 0.68 -0.4 0.96 c-0.26 0.26 -0.56 0.38 -0.94 0.38 s-0.68 -0.12 -0.94 -0.38 z M45.5 20.16 c-2 0 -3.86 -0.78 -5.16 -2.06 c-0.64 -0.64 -1.16 -1.42 -1.54 -2.34 c-0.38 -0.94 -0.58 -1.94 -0.58 -3 c0 -1.08 0.2 -2.1 0.6 -3.04 s0.92 -1.74 1.58 -2.38 c1.34 -1.3 3.2 -2.08 5.16 -2.08 c1.54 0 2.94 0.46 3.88 1.12 c0.48 0.32 0.9 0.7 1.28 1.12 c0.74 0.86 1.14 1.72 1.36 2.56 l-1.46 0.52 c-0.12 -0.48 -0.32 -1 -0.86 -1.76 c-0.28 -0.38 -0.58 -0.72 -0.94 -1.02 s-0.82 -0.56 -1.4 -0.76 c-0.58 -0.22 -1.2 -0.32 -1.9 -0.32 c-1.52 0 -2.98 0.62 -4 1.64 c-1.04 1.04 -1.7 2.58 -1.7 4.3 c0 1.14 0.24 2.18 0.74 3.1 c0.48 0.92 1.16 1.64 2.06 2.16 c0.86 0.52 1.84 0.78 2.92 0.78 c1.34 0 2.5 -0.46 3.2 -1.02 c0.36 -0.28 0.68 -0.6 0.96 -1 c0.28 -0.38 0.48 -0.72 0.62 -1 c0.12 -0.28 0.24 -0.58 0.34 -0.88 l1.46 0.52 c-0.22 0.78 -0.6 1.58 -1.34 2.48 c-0.36 0.44 -0.8 0.84 -1.26 1.18 c-0.96 0.68 -2.42 1.18 -4.02 1.18 z M54.5 19.78 c-0.26 -0.28 -0.4 -0.58 -0.4 -0.96 c0 -0.36 0.14 -0.68 0.4 -0.94 s0.56 -0.38 0.94 -0.38 s0.68 0.12 0.94 0.38 s0.4 0.58 0.4 0.94 c0 0.38 -0.14 0.68 -0.4 0.96 c-0.26 0.26 -0.56 0.38 -0.94 0.38 s-0.68 -0.12 -0.94 -0.38 z"></path></g><g id="SvgjsG2513" featureKey="sloganFeature-0" transform="matrix(0.4141130035122768,0,0,0.4141130035122768,162.42852410649382,137.3457014860449)" fill="#111111"><path d="M11.42 5.720000000000001 l0 2.64 l-6.9 0 l0 3.3 l5.98 0 l0 2.44 l-5.98 0 l0 5.9 l-3.14 0 l0 -14.28 l10.04 0 z M22.887999999999998 5.720000000000001 l5.34 14.28 l-3.26 0 l-1.08 -3.18 l-5.34 0 l-1.12 3.18 l-3.18 0 l5.42 -14.28 l3.22 0 z M21.228 9.24 l-1.86 5.24 l3.7 0 l-1.8 -5.24 l-0.04 0 z M39.836 5.720000000000001 c3.0266 0 4.54 1.1733 4.54 3.52 c0 1.3467 -0.64666 2.3466 -1.94 3 c0.88 0.25334 1.5367 0.69668 1.97 1.33 s0.65 1.3967 0.65 2.29 c0 1.28 -0.46334 2.29 -1.39 3.03 s-2.1434 1.11 -3.65 1.11 l-6.92 0 l0 -14.28 l6.74 0 z M39.436 11.5 c1.2667 0 1.9 -0.56666 1.9 -1.7 c0 -1.0933 -0.70666 -1.64 -2.12 -1.64 l-2.98 0 l0 3.34 l3.2 0 z M39.616 17.56 c1.5333 0 2.3 -0.62666 2.3 -1.88 c0 -1.36 -0.74666 -2.04 -2.24 -2.04 l-3.44 0 l0 3.92 l3.38 0 z M58.504 5.720000000000001 c1.2 0 2.1968 0.37 2.99 1.11 s1.19 1.6833 1.19 2.83 c0 1.7867 -0.75334 2.98 -2.26 3.58 l0 0.04 c0.50666 0.14666 0.90332 0.39 1.19 0.73 s0.50332 0.73666 0.64998 1.19 s0.24 1.18 0.28 2.18 c0.05334 1.3067 0.24 2.18 0.56 2.62 l-3.14 0 c-0.17334 -0.44 -0.30668 -1.2667 -0.40002 -2.48 c-0.10666 -1.28 -0.34 -2.1166 -0.7 -2.51 s-0.94666 -0.59 -1.76 -0.59 l-3.16 0 l0 5.58 l-3.14 0 l0 -14.28 l7.7 0 z M57.403999999999996 12.18 c0.66666 0 1.19 -0.15 1.57 -0.45 s0.57 -0.83 0.57 -1.59 c0 -0.72 -0.18666 -1.23 -0.56 -1.53 s-0.90668 -0.45 -1.6 -0.45 l-3.44 0 l0 4.02 l3.46 0 z M72.01199999999999 5.720000000000001 l0 14.28 l-3.14 0 l0 -14.28 l3.14 0 z M84.8 5.380000000000001 c1.6667 0 3.0666 0.47 4.2 1.41 s1.7867 2.1834 1.96 3.73 l-3.04 0 c-0.10666 -0.70666 -0.46 -1.3 -1.06 -1.78 s-1.2867 -0.72 -2.06 -0.72 c-1.2267 0 -2.18 0.44 -2.86 1.32 s-1.02 2.0734 -1.02 3.58 c0 1.4667 0.34334 2.63 1.03 3.49 s1.6367 1.29 2.85 1.29 c0.90666 0 1.64 -0.27666 2.2 -0.83 s0.90666 -1.3433 1.04 -2.37 l3.04 0 c-0.16 1.8133 -0.81 3.24 -1.95 4.28 s-2.5834 1.56 -4.33 1.56 c-2.0934 0 -3.7866 -0.69 -5.08 -2.07 s-1.94 -3.1634 -1.94 -5.35 c0 -2.2134 0.64 -4.0234 1.92 -5.43 s2.98 -2.11 5.1 -2.11 z M103.96799999999999 5.720000000000001 l5.34 14.28 l-3.26 0 l-1.08 -3.18 l-5.34 0 l-1.12 3.18 l-3.18 0 l5.42 -14.28 l3.22 0 z M102.30799999999999 9.24 l-1.86 5.24 l3.7 0 l-1.8 -5.24 l-0.04 0 z M117.29599999999999 5.720000000000001 l5.96 9.58 l0.04 0 l0 -9.58 l2.94 0 l0 14.28 l-3.14 0 l-5.94 -9.56 l-0.04 0 l0 9.56 l-2.94 0 l0 -14.28 l3.12 0 z M143.204 5.720000000000001 l0 2.64 l-4.28 0 l0 11.64 l-3.14 0 l0 -11.64 l-4.28 0 l0 -2.64 l11.7 0 z M163.78 5.720000000000001 c2.0266 0 3.62 0.62666 4.78 1.88 s1.74 2.98 1.74 5.18 c0 2.28 -0.58334 4.0534 -1.75 5.32 s-2.73 1.9 -4.69 1.9 l-6.2 0 l0 -14.28 l6.12 0 z M163.58 17.36 c1.1333 0 2.0134 -0.37334 2.64 -1.12 s0.94 -1.8067 0.94 -3.18 c0 -1.5733 -0.33666 -2.75 -1.01 -3.53 s-1.71 -1.17 -3.11 -1.17 l-2.24 0 l0 9 l2.78 0 z M186.788 5.720000000000001 l0 2.64 l-7.54 0 l0 3.06 l6.92 0 l0 2.44 l-6.92 0 l0 3.5 l7.7 0 l0 2.64 l-10.84 0 l0 -14.28 l10.68 0 z M208.344 5.720000000000001 c1.52 0 2.72 0.41334 3.6 1.24 s1.32 1.94 1.32 3.34 c0 1.4133 -0.44 2.53 -1.32 3.35 s-2.0734 1.23 -3.58 1.23 l-3.34 0 l0 5.12 l-3.14 0 l0 -14.28 l6.46 0 z M207.524 12.440000000000001 c0.90666 0 1.5833 -0.16666 2.03 -0.5 s0.67 -0.88 0.67 -1.64 c0 -0.73334 -0.21666 -1.2733 -0.65 -1.62 s-1.11 -0.52 -2.03 -0.52 l-2.52 0 l0 4.28 l2.5 0 z M225.25199999999998 5.380000000000001 c2.1066 0 3.8034 0.7 5.09 2.1 s1.93 3.2134 1.93 5.44 c0 2.1734 -0.64666 3.9534 -1.94 5.34 s-2.9866 2.08 -5.08 2.08 c-2.1066 0 -3.8034 -0.69334 -5.09 -2.08 s-1.93 -3.1666 -1.93 -5.34 c0 -2.2134 0.64666 -4.0234 1.94 -5.43 s2.9866 -2.11 5.08 -2.11 z M221.37199999999999 12.92 c0 1.44 0.33998 2.5966 1.02 3.47 s1.6333 1.31 2.86 1.31 c1.2 0 2.1466 -0.43 2.84 -1.29 s1.04 -2.0234 1.04 -3.49 c0 -1.5333 -0.34334 -2.7334 -1.03 -3.6 s-1.6433 -1.3 -2.87 -1.3 c-1.2 0 -2.1434 0.43334 -2.83 1.3 s-1.03 2.0666 -1.03 3.6 z M245.73999999999998 5.720000000000001 c1.2 0 2.1968 0.37 2.99 1.11 s1.19 1.6833 1.19 2.83 c0 1.7867 -0.75334 2.98 -2.26 3.58 l0 0.04 c0.50666 0.14666 0.90332 0.39 1.19 0.73 s0.50332 0.73666 0.64998 1.19 s0.24 1.18 0.28 2.18 c0.05334 1.3067 0.24 2.18 0.56 2.62 l-3.14 0 c-0.17334 -0.44 -0.30668 -1.2667 -0.40002 -2.48 c-0.10666 -1.28 -0.34 -2.1166 -0.7 -2.51 s-0.94666 -0.59 -1.76 -0.59 l-3.16 0 l0 5.58 l-3.14 0 l0 -14.28 l7.7 0 z M244.63999999999996 12.18 c0.66666 0 1.19 -0.15 1.57 -0.45 s0.57 -0.83 0.57 -1.59 c0 -0.72 -0.18666 -1.23 -0.56 -1.53 s-0.90668 -0.45 -1.6 -0.45 l-3.44 0 l0 4.02 l3.46 0 z M266.3279999999999 5.720000000000001 l0 2.64 l-4.28 0 l0 11.64 l-3.14 0 l0 -11.64 l-4.28 0 l0 -2.64 l11.7 0 z M282.27599999999995 5.720000000000001 l0 2.64 l-7.54 0 l0 3.06 l6.92 0 l0 2.44 l-6.92 0 l0 3.5 l7.7 0 l0 2.64 l-10.84 0 l0 -14.28 l10.68 0 z M293.104 5.380000000000001 c1.7467 0 3.1366 0.40002 4.17 1.2 s1.55 1.9333 1.55 3.4 l-3.04 0 c-0.04 -0.72 -0.28334 -1.26 -0.73 -1.62 s-1.1367 -0.54 -2.07 -0.54 c-0.65334 0 -1.18 0.14334 -1.58 0.43 s-0.6 0.68332 -0.6 1.19 c0 0.41334 0.12334 0.71334 0.37 0.9 s0.59666 0.35332 1.05 0.49998 s1.2467 0.36 2.38 0.64 c1.1867 0.29334 2.1 0.61334 2.74 0.96 s1.1267 0.79 1.46 1.33 s0.5 1.2033 0.5 1.99 c0 0.90666 -0.24 1.7133 -0.72 2.42 s-1.18 1.2433 -2.1 1.61 s-1.96 0.55 -3.12 0.55 c-1.7733 0 -3.23 -0.44334 -4.37 -1.33 s-1.71 -2.1034 -1.71 -3.65 l0 -0.1 l3.04 0 c0 0.84 0.28666 1.49 0.86 1.95 s1.3333 0.69 2.28 0.69 c0.84 0 1.5167 -0.15 2.03 -0.45 s0.77 -0.74334 0.77 -1.33 c0 -0.38666 -0.14 -0.71332 -0.42 -0.97998 s-0.65334 -0.48332 -1.12 -0.64998 s-1.2533 -0.37666 -2.36 -0.63 c-1.28 -0.32 -2.2134 -0.66 -2.8 -1.02 s-1.0333 -0.79666 -1.34 -1.31 s-0.46 -1.13 -0.46 -1.85 c0 -0.89334 0.25666 -1.6733 0.77 -2.34 s1.1833 -1.16 2.01 -1.48 s1.68 -0.48 2.56 -0.48 z M324.65999999999997 5.720000000000001 l0 2.64 l-7.54 0 l0 3.06 l6.92 0 l0 2.44 l-6.92 0 l0 3.5 l7.7 0 l0 2.64 l-10.84 0 l0 -14.28 l10.68 0 z M341.14799999999997 5.720000000000001 l0 2.64 l-4.28 0 l0 11.64 l-3.14 0 l0 -11.64 l-4.28 0 l0 -2.64 l11.7 0 z M365.644 5.720000000000001 l0 2.64 l-6.9 0 l0 3.3 l5.98 0 l0 2.44 l-5.98 0 l0 5.9 l-3.14 0 l0 -14.28 l10.04 0 z M381.772 5.720000000000001 l0 2.64 l-7.54 0 l0 3.06 l6.92 0 l0 2.44 l-6.92 0 l0 3.5 l7.7 0 l0 2.64 l-10.84 0 l0 -14.28 l10.68 0 z M390.8 5.720000000000001 l5.96 9.58 l0.04 0 l0 -9.58 l2.94 0 l0 14.28 l-3.14 0 l-5.94 -9.56 l-0.04 0 l0 9.56 l-2.94 0 l0 -14.28 l3.12 0 z M416.808 5.720000000000001 l0 2.64 l-7.54 0 l0 3.06 l6.92 0 l0 2.44 l-6.92 0 l0 3.5 l7.7 0 l0 2.64 l-10.84 0 l0 -14.28 l10.68 0 z M412.70799999999997 1.5799999999999983 l2.2 2.84 l-2.3 0 l-1.24 -1.62 l-1.28 1.62 l-2.2 0 l2.22 -2.84 l2.6 0 z M433.296 5.720000000000001 l0 2.64 l-4.28 0 l0 11.64 l-3.14 0 l0 -11.64 l-4.28 0 l0 -2.64 l11.7 0 z M446.264 5.720000000000001 c1.2 0 2.1968 0.37 2.99 1.11 s1.19 1.6833 1.19 2.83 c0 1.7867 -0.75334 2.98 -2.26 3.58 l0 0.04 c0.50666 0.14666 0.90332 0.39 1.19 0.73 s0.50332 0.73666 0.64998 1.19 s0.24 1.18 0.28 2.18 c0.05334 1.3067 0.24 2.18 0.56 2.62 l-3.14 0 c-0.17334 -0.44 -0.30668 -1.2667 -0.40002 -2.48 c-0.10666 -1.28 -0.34 -2.1166 -0.7 -2.51 s-0.94666 -0.59 -1.76 -0.59 l-3.16 0 l0 5.58 l-3.14 0 l0 -14.28 l7.7 0 z M445.16400000000004 12.18 c0.66666 0 1.19 -0.15 1.57 -0.45 s0.57 -0.83 0.57 -1.59 c0 -0.72 -0.18666 -1.23 -0.56 -1.53 s-0.90668 -0.45 -1.6 -0.45 l-3.44 0 l0 4.02 l3.46 0 z M467.312 5.720000000000001 l0 2.64 l-7.54 0 l0 3.06 l6.92 0 l0 2.44 l-6.92 0 l0 3.5 l7.7 0 l0 2.64 l-10.84 0 l0 -14.28 l10.68 0 z M478.14000000000004 5.380000000000001 c1.7467 0 3.1366 0.40002 4.17 1.2 s1.55 1.9333 1.55 3.4 l-3.04 0 c-0.04 -0.72 -0.28334 -1.26 -0.73 -1.62 s-1.1367 -0.54 -2.07 -0.54 c-0.65334 0 -1.18 0.14334 -1.58 0.43 s-0.6 0.68332 -0.6 1.19 c0 0.41334 0.12334 0.71334 0.37 0.9 s0.59666 0.35332 1.05 0.49998 s1.2467 0.36 2.38 0.64 c1.1867 0.29334 2.1 0.61334 2.74 0.96 s1.1267 0.79 1.46 1.33 s0.5 1.2033 0.5 1.99 c0 0.90666 -0.24 1.7133 -0.72 2.42 s-1.18 1.2433 -2.1 1.61 s-1.96 0.55 -3.12 0.55 c-1.7733 0 -3.23 -0.44334 -4.37 -1.33 s-1.71 -2.1034 -1.71 -3.65 l0 -0.1 l3.04 0 c0 0.84 0.28666 1.49 0.86 1.95 s1.3333 0.69 2.28 0.69 c0.84 0 1.5167 -0.15 2.03 -0.45 s0.77 -0.74334 0.77 -1.33 c0 -0.38666 -0.14 -0.71332 -0.42 -0.97998 s-0.65334 -0.48332 -1.12 -0.64998 s-1.2533 -0.37666 -2.36 -0.63 c-1.28 -0.32 -2.2134 -0.66 -2.8 -1.02 s-1.0333 -0.79666 -1.34 -1.31 s-0.46 -1.13 -0.46 -1.85 c0 -0.89334 0.25666 -1.6733 0.77 -2.34 s1.1833 -1.16 2.01 -1.48 s1.68 -0.48 2.56 -0.48 z"></path></g><g id="SvgjsG2514" featureKey="sloganFeature-1" transform="matrix(0.4141130035122768,0,0,0.4141130035122768,190.0579758639339,153.77207199371247)" fill="#111111"><path d="M8.5 5.720000000000001 l5.34 14.28 l-3.26 0 l-1.08 -3.18 l-5.34 0 l-1.12 3.18 l-3.18 0 l5.42 -14.28 l3.22 0 z M6.84 9.24 l-1.86 5.24 l3.7 0 l-1.8 -5.24 l-0.04 0 z M21.788000000000004 5.720000000000001 l-0.000019531 8.94 c0 1.0533 0.23666 1.8233 0.71 2.31 s1.2167 0.73 2.23 0.73 c1.0933 0 1.86 -0.24334 2.3 -0.73 s0.66 -1.2567 0.66 -2.31 l0 -8.94 l3.14 0 l0 8.94 c0 1.7867 -0.51 3.18 -1.53 4.18 s-2.5434 1.5 -4.57 1.5 c-2.0666 0 -3.5966 -0.5 -4.59 -1.5 s-1.49 -2.3934 -1.49 -4.18 l0 -8.94 l3.14 0 z M51.264 5.380000000000001 c1.7467 0 3.1366 0.40002 4.17 1.2 s1.55 1.9333 1.55 3.4 l-3.04 0 c-0.04 -0.72 -0.28334 -1.26 -0.73 -1.62 s-1.1367 -0.54 -2.07 -0.54 c-0.65334 0 -1.18 0.14334 -1.58 0.43 s-0.6 0.68332 -0.6 1.19 c0 0.41334 0.12334 0.71334 0.37 0.9 s0.59666 0.35332 1.05 0.49998 s1.2467 0.36 2.38 0.64 c1.1867 0.29334 2.1 0.61334 2.74 0.96 s1.1267 0.79 1.46 1.33 s0.5 1.2033 0.5 1.99 c0 0.90666 -0.24 1.7133 -0.72 2.42 s-1.18 1.2433 -2.1 1.61 s-1.96 0.55 -3.12 0.55 c-1.7733 0 -3.23 -0.44334 -4.37 -1.33 s-1.71 -2.1034 -1.71 -3.65 l0 -0.1 l3.04 0 c0 0.84 0.28666 1.49 0.86 1.95 s1.3333 0.69 2.28 0.69 c0.84 0 1.5167 -0.15 2.03 -0.45 s0.77 -0.74334 0.77 -1.33 c0 -0.38666 -0.14 -0.71332 -0.42 -0.97998 s-0.65334 -0.48332 -1.12 -0.64998 s-1.2533 -0.37666 -2.36 -0.63 c-1.28 -0.32 -2.2134 -0.66 -2.8 -1.02 s-1.0333 -0.79666 -1.34 -1.31 s-0.46 -1.13 -0.46 -1.85 c0 -0.89334 0.25666 -1.6733 0.77 -2.34 s1.1833 -1.16 2.01 -1.48 s1.68 -0.48 2.56 -0.48 z M70.072 5.720000000000001 l5.34 14.28 l-3.26 0 l-1.08 -3.18 l-5.34 0 l-1.12 3.18 l-3.18 0 l5.42 -14.28 l3.22 0 z M68.412 9.24 l-1.86 5.24 l3.7 0 l-1.8 -5.24 l-0.04 0 z M86.68 5.380000000000001 c1.6267 0 3.0066 0.47336 4.14 1.42 s1.76 2.1534 1.88 3.62 l-3 0 c-0.18666 -0.8 -0.54666 -1.4 -1.08 -1.8 s-1.18 -0.6 -1.94 -0.6 c-1.2267 0 -2.18 0.44334 -2.86 1.33 s-1.02 2.0766 -1.02 3.57 c0 1.4667 0.34666 2.63 1.04 3.49 s1.64 1.29 2.84 1.29 c2.0534 0 3.1866 -1.0267 3.4 -3.08 l-3.16 0 l0 -2.34 l6 0 l0 7.72 l-2 0 l-0.32 -1.62 c-1 1.3067 -2.3066 1.96 -3.92 1.96 c-2.1066 0 -3.8034 -0.69334 -5.09 -2.08 s-1.93 -3.1666 -1.93 -5.34 c0 -2.2134 0.64 -4.0234 1.92 -5.43 s2.98 -2.11 5.1 -2.11 z M102.16799999999999 5.720000000000001 l-0.000019531 8.94 c0 1.0533 0.23666 1.8233 0.71 2.31 s1.2167 0.73 2.23 0.73 c1.0933 0 1.86 -0.24334 2.3 -0.73 s0.66 -1.2567 0.66 -2.31 l0 -8.94 l3.14 0 l0 8.94 c0 1.7867 -0.51 3.18 -1.53 4.18 s-2.5434 1.5 -4.57 1.5 c-2.0666 0 -3.5966 -0.5 -4.59 -1.5 s-1.49 -2.3934 -1.49 -4.18 l0 -8.94 l3.14 0 z M128.216 5.720000000000001 l0 2.64 l-7.54 0 l0 3.06 l6.92 0 l0 2.44 l-6.92 0 l0 3.5 l7.7 0 l0 2.64 l-10.84 0 l0 -14.28 l10.68 0 z M137.244 5.720000000000001 l5.96 9.58 l0.04 0 l0 -9.58 l2.94 0 l0 14.28 l-3.14 0 l-5.94 -9.56 l-0.04 0 l0 9.56 l-2.94 0 l0 -14.28 l3.12 0 z M159.692 5.720000000000001 l5.34 14.28 l-3.26 0 l-1.08 -3.18 l-5.34 0 l-1.12 3.18 l-3.18 0 l5.42 -14.28 l3.22 0 z M158.032 9.24 l-1.86 5.24 l3.7 0 l-1.8 -5.24 l-0.04 0 z M170.40000000000003 5.720000000000001 l3.34 5.64 l3.32 -5.64 l3.5 0 l-5.3 8.8 l0 5.48 l-3.14 0 l0 -5.56 l-5.26 -8.72 l3.54 0 z M200.696 5.720000000000001 c2.0266 0 3.62 0.62666 4.78 1.88 s1.74 2.98 1.74 5.18 c0 2.28 -0.58334 4.0534 -1.75 5.32 s-2.73 1.9 -4.69 1.9 l-6.2 0 l0 -14.28 l6.12 0 z M200.496 17.36 c1.1333 0 2.0134 -0.37334 2.64 -1.12 s0.94 -1.8067 0.94 -3.18 c0 -1.5733 -0.33666 -2.75 -1.01 -3.53 s-1.71 -1.17 -3.11 -1.17 l-2.24 0 l0 9 l2.78 0 z M223.704 5.720000000000001 l0 2.64 l-7.54 0 l0 3.06 l6.92 0 l0 2.44 l-6.92 0 l0 3.5 l7.7 0 l0 2.64 l-10.84 0 l0 -14.28 l10.68 0 z M236.072 5.720000000000001 c1.52 0 2.72 0.41334 3.6 1.24 s1.32 1.94 1.32 3.34 c0 1.4133 -0.44 2.53 -1.32 3.35 s-2.0734 1.23 -3.58 1.23 l-3.34 0 l0 5.12 l-3.14 0 l0 -14.28 l6.46 0 z M235.252 12.440000000000001 c0.90666 0 1.5833 -0.16666 2.03 -0.5 s0.67 -0.88 0.67 -1.64 c0 -0.73334 -0.21666 -1.2733 -0.65 -1.62 s-1.11 -0.52 -2.03 -0.52 l-2.52 0 l0 4.28 l2.5 0 z M249.66 5.720000000000001 l-0.000019531 8.94 c0 1.0533 0.23666 1.8233 0.71 2.31 s1.2167 0.73 2.23 0.73 c1.0933 0 1.86 -0.24334 2.3 -0.73 s0.66 -1.2567 0.66 -2.31 l0 -8.94 l3.14 0 l0 8.94 c0 1.7867 -0.51 3.18 -1.53 4.18 s-2.5434 1.5 -4.57 1.5 c-2.0666 0 -3.5966 -0.5 -4.59 -1.5 s-1.49 -2.3934 -1.49 -4.18 l0 -8.94 l3.14 0 z M268.16799999999995 5.720000000000001 l0 14.28 l-3.14 0 l0 -14.28 l3.14 0 z M279.476 5.380000000000001 c1.7467 0 3.1366 0.40002 4.17 1.2 s1.55 1.9333 1.55 3.4 l-3.04 0 c-0.04 -0.72 -0.28334 -1.26 -0.73 -1.62 s-1.1367 -0.54 -2.07 -0.54 c-0.65334 0 -1.18 0.14334 -1.58 0.43 s-0.6 0.68332 -0.6 1.19 c0 0.41334 0.12334 0.71334 0.37 0.9 s0.59666 0.35332 1.05 0.49998 s1.2467 0.36 2.38 0.64 c1.1867 0.29334 2.1 0.61334 2.74 0.96 s1.1267 0.79 1.46 1.33 s0.5 1.2033 0.5 1.99 c0 0.90666 -0.24 1.7133 -0.72 2.42 s-1.18 1.2433 -2.1 1.61 s-1.96 0.55 -3.12 0.55 c-1.7733 0 -3.23 -0.44334 -4.37 -1.33 s-1.71 -2.1034 -1.71 -3.65 l0 -0.1 l3.04 0 c0 0.84 0.28666 1.49 0.86 1.95 s1.3333 0.69 2.28 0.69 c0.84 0 1.5167 -0.15 2.03 -0.45 s0.77 -0.74334 0.77 -1.33 c0 -0.38666 -0.14 -0.71332 -0.42 -0.97998 s-0.65334 -0.48332 -1.12 -0.64998 s-1.2533 -0.37666 -2.36 -0.63 c-1.28 -0.32 -2.2134 -0.66 -2.8 -1.02 s-1.0333 -0.79666 -1.34 -1.31 s-0.46 -1.13 -0.46 -1.85 c0 -0.89334 0.25666 -1.6733 0.77 -2.34 s1.1833 -1.16 2.01 -1.48 s1.68 -0.48 2.56 -0.48 z M306.81199999999995 6 l0 14 l-2.84 0 l0 -9.08 l-3.52 0 l0 -2.14 l0.2 0 c2.3066 0 3.6066 -0.92666 3.9 -2.78 l2.26 0 z M319.05999999999995 5.720000000000001 c1.72 0 3.0434 0.62002 3.97 1.86 s1.39 3.0266 1.39 5.36 c0 2.1866 -0.49666 3.9566 -1.49 5.31 s-2.33 2.03 -4.01 2.03 c-1.2267 0 -2.25 -0.33666 -3.07 -1.01 s-1.31 -1.63 -1.47 -2.87 l2.7 0 c0.10666 0.50666 0.33 0.92332 0.67 1.25 s0.74334 0.49 1.21 0.49 c0.76 0 1.37 -0.36 1.83 -1.08 s0.74334 -1.78 0.85 -3.18 l-0.04 -0.04 c-0.73334 1.04 -1.7867 1.56 -3.16 1.56 c-0.76 0 -1.4767 -0.19334 -2.15 -0.58 s-1.2 -0.91666 -1.58 -1.59 s-0.57 -1.47 -0.57 -2.39 c0 -1.48 0.46334 -2.7034 1.39 -3.67 s2.1034 -1.45 3.53 -1.45 z M316.97999999999996 10.62 c0 0.77334 0.19666 1.4067 0.59 1.9 s0.91 0.74 1.55 0.74 c0.65334 0 1.1933 -0.23 1.62 -0.69 s0.64 -1.0967 0.64 -1.91 c0 -0.72 -0.20666 -1.3333 -0.62 -1.84 s-0.96 -0.76 -1.64 -0.76 c-0.62666 0 -1.14 0.25 -1.54 0.75 s-0.6 1.1033 -0.6 1.81 z M334.04799999999994 5.720000000000001 c0.94666 0 1.7733 0.17998 2.48 0.53998 s1.25 0.83334 1.63 1.42 s0.57 1.1933 0.57 1.82 c0 0.68 -0.17 1.28 -0.51 1.8 s-0.85 0.89334 -1.53 1.12 l0 0.04 c0.88 0.21334 1.5367 0.62 1.97 1.22 s0.65 1.3333 0.65 2.2 c0 1.32 -0.49334 2.3834 -1.48 3.19 s-2.24 1.21 -3.76 1.21 c-1.5467 0 -2.82 -0.39334 -3.82 -1.18 s-1.5 -1.8533 -1.5 -3.2 c0 -0.88 0.23 -1.6233 0.69 -2.23 s1.11 -1.01 1.95 -1.21 l0 -0.04 c-0.66666 -0.18666 -1.1767 -0.53332 -1.53 -1.04 s-0.53 -1.12 -0.53 -1.84 c0 -1.1333 0.46334 -2.0534 1.39 -2.76 s2.0366 -1.06 3.33 -1.06 z M331.90799999999996 9.8 c0 0.6 0.21334 1.0567 0.64 1.37 s0.92666 0.47 1.5 0.47 c0.6 0 1.1 -0.15666 1.5 -0.47 s0.6 -0.77 0.6 -1.37 c0 -0.61334 -0.19334 -1.09 -0.58 -1.43 s-0.9 -0.51 -1.54 -0.51 c-0.61334 0 -1.12 0.18334 -1.52 0.55 s-0.6 0.83 -0.6 1.39 z M331.58799999999997 15.76 c0 0.72 0.23662 1.2967 0.70996 1.73 s1.0633 0.65 1.77 0.65 c0.69334 0 1.2667 -0.22 1.72 -0.66 s0.68 -1.0067 0.68 -1.7 c0 -0.64 -0.22666 -1.1733 -0.68 -1.6 s-1.0333 -0.64 -1.74 -0.64 s-1.2933 0.19334 -1.76 0.58 s-0.7 0.93332 -0.7 1.64 z M352.15599999999995 6 l0 8.42 l1.86 0 l0 2.34 l-1.86 0 l0 3.24 l-2.7 0 l0 -3.24 l-5.92 0 l0 -2.6 l6.08 -8.16 l2.54 0 z M349.39599999999996 9.56 l-3.62 4.86 l3.68 0 l0 -4.86 l-0.06 0 z"></path></g>
			</g>
		</svg>
	